<svg width="247" height="40" viewBox="0 0 247 40" fill="none" xmlns="http://www.w3.org/2000/svg">
<ellipse cx="6.30402" cy="5.90829" rx="1.54696" ry="1.54696" fill="white"/>
<ellipse cx="10.4568" cy="10.2579" rx="1.9337" ry="1.9337" fill="white"/>
<circle cx="29.9009" cy="36.6407" r="1.16022" fill="white"/>
<ellipse cx="25.1293" cy="33.4551" rx="1.7403" ry="1.7403" fill="white"/>
<ellipse cx="33.6864" cy="39.1036" rx="0.773478" ry="0.773478" fill="white"/>
<ellipse cx="38.0324" cy="37.834" rx="0.966848" ry="0.966848" fill="white"/>
<ellipse cx="39.6229" cy="32.8829" rx="0.773478" ry="0.773478" fill="white"/>
<circle cx="36.6401" cy="29.1075" r="1.16022" fill="white"/>
<ellipse cx="33.2559" cy="25.5256" rx="1.7403" ry="1.7403" fill="white"/>
<ellipse cx="29.8815" cy="29.6837" rx="1.9337" ry="1.9337" fill="white"/>
<ellipse cx="34.2519" cy="33.6563" rx="1.54696" ry="1.54696" fill="white"/>
<ellipse cx="14.6003" cy="14.9967" rx="2.70757" ry="2.70757" fill="white"/>
<ellipse cx="11.0463" cy="20.1639" rx="2.12681" ry="2.12681" fill="white"/>
<circle cx="7.09205" cy="25.5257" r="1.74033" fill="white"/>
<ellipse cx="4.07233" cy="29.307" rx="1.16053" ry="1.16053" fill="white"/>
<ellipse cx="0.773478" cy="32.4883" rx="0.773478" ry="0.773478" fill="white"/>
<ellipse cx="2.55254" cy="37.834" rx="0.966848" ry="0.966848" fill="white"/>
<ellipse cx="7.51266" cy="39.2265" rx="0.773478" ry="0.773478" fill="white"/>
<ellipse cx="11.0711" cy="36.641" rx="1.16053" ry="1.16053" fill="white"/>
<ellipse cx="15.0205" cy="33.0587" rx="1.7403" ry="1.7403" fill="white"/>
<ellipse cx="10.4568" cy="29.6837" rx="1.9337" ry="1.9337" fill="white"/>
<ellipse cx="14.5999" cy="25.1056" rx="2.70717" ry="2.70717" fill="white"/>
<ellipse cx="20.0373" cy="20.2872" rx="3.28728" ry="3.28728" fill="#92278F"/>
<ellipse cx="20.3674" cy="29.6837" rx="1.9337" ry="1.9337" fill="white"/>
<ellipse cx="25.1496" cy="25.106" rx="2.70757" ry="2.70757" fill="white"/>
<ellipse cx="29.0838" cy="20.1642" rx="2.12707" ry="2.12707" fill="white"/>
<circle cx="33.0577" cy="15.0196" r="1.74033" fill="white"/>
<ellipse cx="36.6404" cy="11.0707" rx="1.16053" ry="1.16053" fill="white"/>
<ellipse cx="39.6229" cy="7.11528" rx="0.773478" ry="0.773478" fill="#92278F"/>
<ellipse cx="38.2306" cy="2.75005" rx="0.966848" ry="0.966848" fill="#92278F"/>
<ellipse cx="33.8748" cy="0.773478" rx="0.773478" ry="0.773478" fill="#92278F"/>
<ellipse cx="29.9012" cy="3.34022" rx="1.16053" ry="1.16053" fill="white"/>
<ellipse cx="34.2519" cy="6.10578" rx="1.54696" ry="1.54696" fill="#92278F"/>
<ellipse cx="29.8815" cy="10.2579" rx="1.9337" ry="1.9337" fill="#92278F"/>
<ellipse cx="25.1051" cy="15.3926" rx="2.70717" ry="2.70717" fill="#92278F"/>
<ellipse cx="25.1293" cy="6.49811" rx="1.7403" ry="1.7403" fill="white"/>
<ellipse cx="20.3674" cy="11.0509" rx="1.9337" ry="1.9337" fill="white"/>
<ellipse cx="6.10583" cy="34.0528" rx="1.54696" ry="1.54696" fill="white"/>
<ellipse cx="2.75076" cy="1.95708" rx="0.966848" ry="0.966848" fill="white"/>
<ellipse cx="0.773478" cy="7.11528" rx="0.773478" ry="0.773478" fill="white"/>
<ellipse cx="7.7109" cy="0.773478" rx="0.773478" ry="0.773478" fill="white"/>
<ellipse cx="11.2693" cy="3.53943" rx="1.16053" ry="1.16053" fill="white"/>
<ellipse cx="3.9355" cy="10.6742" rx="1.16053" ry="1.16053" fill="white"/>
<ellipse cx="7.29021" cy="14.8223" rx="1.7403" ry="1.7403" fill="white"/>
<ellipse cx="15.0205" cy="6.29912" rx="1.7403" ry="1.7403" fill="white"/>
<path d="M226.303 10.8613H231.541L236.859 24.0757H236.938L241.7 10.8613H246.66L237.652 33.9965C237.308 34.8959 236.925 35.6764 236.501 36.3378C236.105 37.0256 235.628 37.5944 235.073 38.0441C234.517 38.5203 233.856 38.8642 233.089 39.0759C232.348 39.314 231.449 39.433 230.39 39.433C229.147 39.433 227.93 39.2743 226.739 38.9568L227.335 34.6711C227.705 34.8033 228.089 34.9092 228.486 34.9885C228.909 35.0944 229.332 35.1473 229.755 35.1473C230.337 35.1473 230.827 35.0944 231.224 34.9885C231.62 34.8827 231.951 34.7108 232.216 34.4727C232.507 34.261 232.745 33.97 232.93 33.5996C233.115 33.2557 233.314 32.8324 233.525 32.3298L234.438 30.0679L226.303 10.8613Z" fill="white"/>
<path d="M223.527 10.8066V28.4181C223.527 30.1149 223.319 31.642 222.901 32.9994C222.483 34.3829 221.831 35.5446 220.943 36.4843C220.082 37.4502 218.985 38.1942 217.654 38.7163C216.323 39.2384 214.743 39.4994 212.916 39.4994C211.167 39.4994 209.509 39.2775 207.943 38.8337C206.377 38.39 204.928 37.5807 203.597 36.406L206.416 32.5687C207.356 33.4301 208.335 34.0958 209.353 34.5657C210.371 35.0355 211.545 35.2705 212.877 35.2705C213.999 35.2705 214.939 35.1139 215.696 34.8006C216.479 34.4874 217.093 34.0566 217.536 33.5084C218.006 32.9602 218.333 32.2946 218.515 31.5115C218.724 30.7544 218.829 29.906 218.829 28.9663V27.5958H218.75C218.072 28.5094 217.171 29.2012 216.048 29.6711C214.926 30.1149 213.777 30.3368 212.603 30.3368C211.193 30.3368 209.914 30.0888 208.765 29.5928C207.617 29.0707 206.625 28.3789 205.789 27.5175C204.98 26.656 204.354 25.638 203.91 24.4633C203.466 23.2886 203.244 22.0356 203.244 20.7042C203.244 19.3207 203.453 18.0285 203.871 16.8277C204.288 15.6269 204.902 14.5827 205.711 13.6952C206.52 12.8076 207.486 12.1159 208.609 11.6199C209.757 11.0978 211.063 10.8368 212.524 10.8368C213.856 10.8368 215.096 11.0978 216.244 11.6199C217.393 12.142 218.307 12.9773 218.985 14.1259H219.064V10.8066H223.527ZM213.503 15.0657C212.668 15.0657 211.911 15.2093 211.232 15.4964C210.554 15.7574 209.966 16.136 209.47 16.6319C209 17.1018 208.622 17.6892 208.335 18.394C208.074 19.0727 207.943 19.8297 207.943 20.6651C207.943 21.4221 208.074 22.1269 208.335 22.7795C208.622 23.4321 209.013 24.0064 209.509 24.5024C210.005 24.9984 210.593 25.39 211.271 25.6771C211.95 25.9643 212.681 26.1078 213.464 26.1078C214.326 26.1078 215.096 25.9643 215.774 25.6771C216.479 25.39 217.067 25.0115 217.536 24.5416C218.032 24.0456 218.411 23.4582 218.672 22.7795C218.933 22.1008 219.064 21.3699 219.064 20.5868C219.064 18.9422 218.568 17.6109 217.576 16.5928C216.584 15.5747 215.226 15.0657 213.503 15.0657Z" fill="white"/>
<path d="M179.345 20.7054C179.345 19.2174 179.606 17.873 180.128 16.6722C180.676 15.4453 181.407 14.4011 182.321 13.5397C183.235 12.6782 184.318 12.0126 185.571 11.5427C186.824 11.0728 188.155 10.8379 189.565 10.8379C190.974 10.8379 192.306 11.0728 193.559 11.5427C194.812 12.0126 195.895 12.6782 196.809 13.5397C197.722 14.4011 198.44 15.4453 198.962 16.6722C199.511 17.873 199.785 19.2174 199.785 20.7054C199.785 22.1933 199.511 23.5507 198.962 24.7776C198.44 25.9784 197.722 27.0096 196.809 27.871C195.895 28.7325 194.812 29.3981 193.559 29.868C192.306 30.3379 190.974 30.5728 189.565 30.5728C188.155 30.5728 186.824 30.3379 185.571 29.868C184.318 29.3981 183.235 28.7325 182.321 27.871C181.407 27.0096 180.676 25.9784 180.128 24.7776C179.606 23.5507 179.345 22.1933 179.345 20.7054ZM184.044 20.7054C184.044 21.4363 184.161 22.1411 184.396 22.8198C184.657 23.4985 185.023 24.0989 185.493 24.621C185.989 25.1431 186.576 25.5608 187.255 25.874C187.933 26.1873 188.703 26.3439 189.565 26.3439C190.426 26.3439 191.196 26.1873 191.875 25.874C192.554 25.5608 193.128 25.1431 193.598 24.621C194.094 24.0989 194.459 23.4985 194.694 22.8198C194.955 22.1411 195.086 21.4363 195.086 20.7054C195.086 19.9744 194.955 19.2696 194.694 18.5909C194.459 17.9122 194.094 17.3118 193.598 16.7897C193.128 16.2676 192.554 15.8499 191.875 15.5367C191.196 15.2234 190.426 15.0668 189.565 15.0668C188.703 15.0668 187.933 15.2234 187.255 15.5367C186.576 15.8499 185.989 16.2676 185.493 16.7897C185.023 17.3118 184.657 17.9122 184.396 18.5909C184.161 19.2696 184.044 19.9744 184.044 20.7054Z" fill="white"/>
<path d="M170.191 0.500008H174.89V30.1024H170.191V0.500008Z" fill="white"/>
<path d="M145.274 20.7054C145.274 19.2174 145.535 17.873 146.057 16.6722C146.605 15.4453 147.336 14.4011 148.25 13.5397C149.164 12.6782 150.247 12.0126 151.5 11.5427C152.753 11.0728 154.084 10.8379 155.494 10.8379C156.904 10.8379 158.235 11.0728 159.488 11.5427C160.741 12.0126 161.824 12.6782 162.738 13.5397C163.652 14.4011 164.37 15.4453 164.892 16.6722C165.44 17.873 165.714 19.2174 165.714 20.7054C165.714 22.1933 165.44 23.5507 164.892 24.7776C164.37 25.9784 163.652 27.0096 162.738 27.871C161.824 28.7325 160.741 29.3981 159.488 29.868C158.235 30.3379 156.904 30.5728 155.494 30.5728C154.084 30.5728 152.753 30.3379 151.5 29.868C150.247 29.3981 149.164 28.7325 148.25 27.871C147.336 27.0096 146.605 25.9784 146.057 24.7776C145.535 23.5507 145.274 22.1933 145.274 20.7054ZM149.973 20.7054C149.973 21.4363 150.09 22.1411 150.325 22.8198C150.586 23.4985 150.952 24.0989 151.422 24.621C151.918 25.1431 152.505 25.5608 153.184 25.874C153.863 26.1873 154.633 26.3439 155.494 26.3439C156.355 26.3439 157.126 26.1873 157.804 25.874C158.483 25.5608 159.057 25.1431 159.527 24.621C160.023 24.0989 160.389 23.4985 160.624 22.8198C160.885 22.1411 161.015 21.4363 161.015 20.7054C161.015 19.9744 160.885 19.2696 160.624 18.5909C160.389 17.9122 160.023 17.3118 159.527 16.7897C159.057 16.2676 158.483 15.8499 157.804 15.5367C157.126 15.2234 156.355 15.0668 155.494 15.0668C154.633 15.0668 153.863 15.2234 153.184 15.5367C152.505 15.8499 151.918 16.2676 151.422 16.7897C150.952 17.3118 150.586 17.9122 150.325 18.5909C150.09 19.2696 149.973 19.9744 149.973 20.7054Z" fill="white"/>
<path d="M128.741 14.8938V10.8122H132.619V5.25H137.32V10.8122H142.491V14.8938H137.32V23.2971C137.32 24.2575 137.49 25.0178 137.829 25.5781C138.195 26.1383 138.9 26.4184 139.945 26.4184C140.363 26.4184 140.82 26.3784 141.316 26.2983C141.812 26.1916 142.204 26.0316 142.491 25.8181V29.8598C141.995 30.0998 141.381 30.2599 140.65 30.3399C139.945 30.4466 139.318 30.5 138.77 30.5C137.516 30.5 136.485 30.3533 135.675 30.0598C134.891 29.7931 134.265 29.3796 133.795 28.8193C133.351 28.2324 133.037 27.5122 132.854 26.6585C132.698 25.8048 132.619 24.8178 132.619 23.6973V14.8938H128.741Z" fill="white"/>
<path d="M108.51 10.8066H112.974V14.3217H113.053C113.496 13.3819 114.175 12.5727 115.089 11.894C116.002 11.1892 117.242 10.8368 118.809 10.8368C120.062 10.8368 121.119 11.0456 121.98 11.4633C122.868 11.8809 123.586 12.4291 124.134 13.1078C124.682 13.7866 125.074 14.5697 125.309 15.4572C125.543 16.3448 125.661 17.2715 125.661 18.2374V30.1018H120.962V20.5868C120.962 20.0647 120.936 19.4904 120.884 18.8639C120.832 18.2113 120.688 17.6109 120.453 17.0627C120.244 16.4884 119.905 16.0185 119.435 15.653C118.965 15.2615 118.326 15.0657 117.516 15.0657C116.733 15.0657 116.068 15.1962 115.519 15.4572C114.997 15.7183 114.554 16.0707 114.188 16.5145C113.849 16.9582 113.601 17.4673 113.444 18.0416C113.287 18.6159 113.209 19.2163 113.209 19.8428V30.1018H108.51V10.8066Z" fill="white"/>
<path d="M83.6713 20.7054C83.6713 19.2174 83.9324 17.873 84.4545 16.6722C85.0027 15.4453 85.7336 14.4011 86.6472 13.5397C87.5609 12.6782 88.6442 12.0126 89.8972 11.5427C91.1502 11.0728 92.4816 10.8379 93.8912 10.8379C95.3008 10.8379 96.6322 11.0728 97.8852 11.5427C99.1382 12.0126 100.222 12.6782 101.135 13.5397C102.049 14.4011 102.767 15.4453 103.289 16.6722C103.837 17.873 104.111 19.2174 104.111 20.7054C104.111 22.1933 103.837 23.5507 103.289 24.7776C102.767 25.9784 102.049 27.0096 101.135 27.871C100.222 28.7325 99.1382 29.3981 97.8852 29.868C96.6322 30.3379 95.3008 30.5728 93.8912 30.5728C92.4816 30.5728 91.1502 30.3379 89.8972 29.868C88.6442 29.3981 87.5609 28.7325 86.6472 27.871C85.7336 27.0096 85.0027 25.9784 84.4545 24.7776C83.9324 23.5507 83.6713 22.1933 83.6713 20.7054ZM88.3701 20.7054C88.3701 21.4363 88.4876 22.1411 88.7225 22.8198C88.9836 23.4985 89.349 24.0989 89.8189 24.621C90.3149 25.1431 90.9022 25.5608 91.581 25.874C92.2597 26.1873 93.0298 26.3439 93.8912 26.3439C94.7526 26.3439 95.5227 26.1873 96.2014 25.874C96.8802 25.5608 97.4545 25.1431 97.9243 24.621C98.4203 24.0989 98.7858 23.4985 99.0207 22.8198C99.2818 22.1411 99.4123 21.4363 99.4123 20.7054C99.4123 19.9744 99.2818 19.2696 99.0207 18.5909C98.7858 17.9122 98.4203 17.3118 97.9243 16.7897C97.4545 16.2676 96.8802 15.8499 96.2014 15.5367C95.5227 15.2234 94.7526 15.0668 93.8912 15.0668C93.0298 15.0668 92.2597 15.2234 91.581 15.5367C90.9022 15.8499 90.3149 16.2676 89.8189 16.7897C89.349 17.3118 88.9836 17.9122 88.7225 18.5909C88.4876 19.2696 88.3701 19.9744 88.3701 20.7054Z" fill="white"/>
<path d="M68.5703 19.8566L61.8364 10.8379H67.759L71.6533 16.6879L75.8721 10.8379H81.4296L74.7769 19.8566L82.606 30.3379H76.6835L71.6128 23.3504L66.5015 30.3379H60.7412L68.5703 19.8566Z" fill="white"/>
<path d="M57.5331 16.9463C56.9849 16.372 56.4106 15.9152 55.8102 15.5758C55.2098 15.2365 54.5963 15.0668 53.9698 15.0668C53.1084 15.0668 52.3383 15.2234 51.6596 15.5367C50.9809 15.8499 50.3935 16.2676 49.8975 16.7897C49.4276 17.3118 49.0622 17.9122 48.8011 18.5909C48.5662 19.2696 48.4487 19.9744 48.4487 20.7054C48.4487 21.4363 48.5662 22.1411 48.8011 22.8198C49.0622 23.4985 49.4276 24.0989 49.8975 24.621C50.3935 25.1431 50.9809 25.5608 51.6596 25.874C52.3383 26.1873 53.1084 26.3439 53.9698 26.3439C54.7007 26.3439 55.3794 26.2003 56.006 25.9132C56.6325 25.5999 57.1676 25.1562 57.6114 24.5819L60.7439 27.9493C60.274 28.4192 59.7258 28.8238 59.0993 29.1632C58.4989 29.5025 57.8855 29.7766 57.259 29.9855C56.6325 30.1943 56.0321 30.3379 55.4578 30.4162C54.8835 30.5206 54.3875 30.5728 53.9698 30.5728C52.5602 30.5728 51.2288 30.3379 49.9758 29.868C48.7228 29.3981 47.6395 28.7325 46.7258 27.871C45.8122 27.0096 45.0813 25.9784 44.5331 24.7776C44.011 23.5507 43.7499 22.1933 43.7499 20.7054C43.7499 19.2174 44.011 17.873 44.5331 16.6722C45.0813 15.4453 45.8122 14.4011 46.7258 13.5397C47.6395 12.6782 48.7228 12.0126 49.9758 11.5427C51.2288 11.0728 52.5602 10.8379 53.9698 10.8379C55.1706 10.8379 56.3714 11.0728 57.5722 11.5427C58.7991 11.9865 59.8694 12.7044 60.7831 13.6963L57.5331 16.9463Z" fill="white"/>
</svg>
